<?xml version="1.0" encoding="UTF-8" standalone="no"?>
<svg
   xmlns:dc="http://purl.org/dc/elements/1.1/"
   xmlns:cc="http://creativecommons.org/ns#"
   xmlns:rdf="http://www.w3.org/1999/02/22-rdf-syntax-ns#"
   xmlns:svg="http://www.w3.org/2000/svg"
   xmlns="http://www.w3.org/2000/svg"
   xmlns:sodipodi="http://sodipodi.sourceforge.net/DTD/sodipodi-0.dtd"
   xmlns:inkscape="http://www.inkscape.org/namespaces/inkscape"
   width="20px"
   height="20px"
   version="1.1"
   id="Layer_1"
   x="0px"
   y="0px"
   viewBox="0 0 300 225.9"
   style="enable-background:new 0 0 300 225.9;"
   xml:space="preserve"
   sodipodi:docname="view-page-source-icon-green.svg"
   inkscape:version="1.0.1 (3bc2e813f5, 2020-09-07)"><metadata
   id="metadata17"><rdf:RDF><cc:Work
       rdf:about=""><dc:format>image/svg+xml</dc:format><dc:type
         rdf:resource="http://purl.org/dc/dcmitype/StillImage" /><dc:title></dc:title></cc:Work></rdf:RDF></metadata><defs
   id="defs15" /><sodipodi:namedview
   pagecolor="#ffffff"
   bordercolor="#666666"
   borderopacity="1"
   objecttolerance="10"
   gridtolerance="10"
   guidetolerance="10"
   inkscape:pageopacity="0"
   inkscape:pageshadow="2"
   inkscape:window-width="3840"
   inkscape:window-height="2094"
   id="namedview13"
   showgrid="false"
   inkscape:zoom="52.1"
   inkscape:cx="10.230326"
   inkscape:cy="10"
   inkscape:window-x="0"
   inkscape:window-y="0"
   inkscape:window-maximized="1"
   inkscape:current-layer="Layer_1" />
<style
   type="text/css"
   id="style2">
	.st0{fill:#EE4C2C;}
</style>
<g
   id="g10">
	<path
   class="st0"
   d="M 0,0 V 225.9 H 300 V 0 Z M 282.4,208.3 H 17.6 V 17.6 h 264.7 v 190.7 z"
   id="path4" />
	<polygon
   class="st0"
   points="142.4,112.9 76.8,47.3 64.4,59.8 64.4,59.8 117.5,112.9 64.4,166.1 76.8,178.5 "
   id="polygon6" />
	<rect
   x="158.8"
   y="156.39999"
   class="st0"
   width="88.199997"
   height="17.6"
   id="rect8" />
</g>
<path
   style="fill:#7fff2a;stroke-width:0.0191939"
   d="M 0,10 V 2.4760077 H 10 20 V 10 17.523992 H 10 0 Z m 18.829175,0 V 3.6276392 H 10 1.1708253 V 10 16.372361 H 10 18.829175 Z"
   id="path842"
   transform="matrix(15,0,0,15,0,-37.05)" /><path
   style="fill:#7fff2a;stroke-width:0.0191939"
   d="m 10.59501,13.483685 v -0.585412 h 2.927063 2.927063 v 0.585412 0.585413 H 13.522073 10.59501 Z"
   id="path844"
   transform="matrix(15,0,0,15,0,-37.05)" /><path
   style="fill:#009900;stroke-width:0.0191939;fill-opacity:1"
   d="M 4.7072408,13.949196 4.2994064,13.541362 6.0700098,11.770681 7.8406132,10 6.0699543,8.2292635 4.2992954,6.458527 4.7121062,6.0460512 5.124917,5.6335753 7.303352,7.8120102 9.4817869,9.9904451 7.2984311,12.173738 5.1150753,14.357031 Z"
   id="path846"
   transform="matrix(15,0,0,15,0,-37.05)" /><path
   style="fill:#009900;fill-opacity:1;stroke-width:0.0191939"
   d="m 10.59501,13.483685 v -0.585412 h 2.927063 2.927063 v 0.585412 0.585413 H 13.522073 10.59501 Z"
   id="path848"
   transform="matrix(15,0,0,15,0,-37.05)" /><path
   style="fill:#009900;fill-opacity:1;stroke-width:0.0191939"
   d="M 0,10 V 2.4760077 H 10 20 V 10 17.523992 H 10 0 Z m 18.829175,0 V 3.6276392 H 10 1.1708253 V 10 16.372361 H 10 18.829175 Z"
   id="path850"
   transform="matrix(15,0,0,15,0,-37.05)" /></svg>
