<?xml version="1.0" encoding="UTF-8" standalone="no"?>
<svg
   xmlns:dc="http://purl.org/dc/elements/1.1/"
   xmlns:cc="http://creativecommons.org/ns#"
   xmlns:rdf="http://www.w3.org/1999/02/22-rdf-syntax-ns#"
   xmlns:svg="http://www.w3.org/2000/svg"
   xmlns="http://www.w3.org/2000/svg"
   xmlns:sodipodi="http://sodipodi.sourceforge.net/DTD/sodipodi-0.dtd"
   xmlns:inkscape="http://www.inkscape.org/namespaces/inkscape"
   version="1.1"
   id="Layer_1"
   x="0px"
   y="0px"
   viewBox="0.3 0.3 8.2 14.4"
   enable-background="new 0.3 0.3 8.2 14.4"
   xml:space="preserve"
   sodipodi:docname="chevron-right-green.svg"
   inkscape:version="1.0.1 (3bc2e813f5, 2020-09-07)"><metadata
   id="metadata16"><rdf:RDF><cc:Work
       rdf:about=""><dc:format>image/svg+xml</dc:format><dc:type
         rdf:resource="http://purl.org/dc/dcmitype/StillImage" /><dc:title>Page 1</dc:title></cc:Work></rdf:RDF></metadata><defs
   id="defs14" /><sodipodi:namedview
   pagecolor="#ffffff"
   bordercolor="#666666"
   borderopacity="1"
   objecttolerance="10"
   gridtolerance="10"
   guidetolerance="10"
   inkscape:pageopacity="0"
   inkscape:pageshadow="2"
   inkscape:window-width="3840"
   inkscape:window-height="2094"
   id="namedview12"
   showgrid="false"
   inkscape:zoom="72.361113"
   inkscape:cx="4.2658348"
   inkscape:cy="7.1999998"
   inkscape:window-x="0"
   inkscape:window-y="0"
   inkscape:window-maximized="1"
   inkscape:current-layer="Layer_1" />
<title
   id="title2">Page 1</title>
<desc
   id="desc4">Created with Sketch.</desc>
<g
   id="desktop">
	<g
   id="_x30_1_x5F_Home"
   transform="translate(-864,-1683)">
		<g
   id="community"
   transform="translate(-18,1391)">
			<g
   id="cta"
   transform="translate(741,277)">
				<polyline
   id="Page-1"
   fill="none"
   stroke="#ee4c2c"
   stroke-width="2"
   points="142,16 148.1,22.5 142,29     " />
			</g>
		</g>
	</g>
</g>
<path
   style="fill:#009900;stroke-width:0.0138196;fill-opacity:1"
   d="M 0.70250446,13.693496 -0.0206425,13.014632 0.03427131,12.957604 C 0.31936306,12.661534 5.4266793,7.2083294 5.4266793,7.1999998 c 0,-0.00833 -5.10699079,-5.4611884 -5.39231143,-5.7575057 L -0.02044937,1.3855642 0.64054306,0.76493182 C 1.0040889,0.42358402 1.3305958,0.11770043 1.366114,0.08519053 L 1.4306923,0.02608162 4.7970646,3.6130407 8.1634368,7.1999998 4.7977954,10.78618 c -1.8511027,1.972399 -3.3671045,3.58618 -3.3688926,3.58618 -0.00179,0 -0.3286675,-0.305488 -0.72639834,-0.678864 z"
   id="path843"
   transform="translate(0.3,0.3)" /></svg>
