<?xml version="1.0" encoding="UTF-8" standalone="no"?>
<svg
   xmlns:dc="http://purl.org/dc/elements/1.1/"
   xmlns:cc="http://creativecommons.org/ns#"
   xmlns:rdf="http://www.w3.org/1999/02/22-rdf-syntax-ns#"
   xmlns:svg="http://www.w3.org/2000/svg"
   xmlns="http://www.w3.org/2000/svg"
   xmlns:xlink="http://www.w3.org/1999/xlink"
   xmlns:sodipodi="http://sodipodi.sourceforge.net/DTD/sodipodi-0.dtd"
   xmlns:inkscape="http://www.inkscape.org/namespaces/inkscape"
   width="16px"
   height="16px"
   viewBox="0 0 16 16"
   version="1.1"
   id="svg15"
   sodipodi:docname="search-icon-green.svg"
   inkscape:version="1.0.1 (3bc2e813f5, 2020-09-07)">
  <metadata
     id="metadata19">
    <rdf:RDF>
      <cc:Work
         rdf:about="">
        <dc:format>image/svg+xml</dc:format>
        <dc:type
           rdf:resource="http://purl.org/dc/dcmitype/StillImage" />
        <dc:title></dc:title>
      </cc:Work>
    </rdf:RDF>
  </metadata>
  <sodipodi:namedview
     pagecolor="#ffffff"
     bordercolor="#666666"
     borderopacity="1"
     objecttolerance="10"
     gridtolerance="10"
     guidetolerance="10"
     inkscape:pageopacity="0"
     inkscape:pageshadow="2"
     inkscape:window-width="3840"
     inkscape:window-height="2094"
     id="namedview17"
     showgrid="false"
     inkscape:zoom="65.125"
     inkscape:cx="8.184261"
     inkscape:cy="8"
     inkscape:window-x="0"
     inkscape:window-y="0"
     inkscape:window-maximized="1"
     inkscape:current-layer="svg15" />
  <!-- Generator: Sketch 51.2 (57519) - http://www.bohemiancoding.com/sketch -->
  <desc
     id="desc2">Created with Sketch.</desc>
  <defs
     id="defs5">
    <polygon
       id="path-1"
       points="0 0 16 0 16 16 0 16" />
  </defs>
  <g
     id="Page-1"
     stroke="none"
     stroke-width="1"
     fill="none"
     fill-rule="evenodd">
    <g
       id="Artboard"
       transform="translate(-63.000000, -93.000000)">
      <g
         id="ic"
         transform="translate(63.000000, 93.000000)">
        <mask
           id="mask-2"
           fill="white">
          <use
             xlink:href="#path-1"
             id="use7" />
        </mask>
        <g
           id="Clip-2" />
        <path
           d="M2.95913767,9.58220606 C1.13316435,7.75622206 1.13316435,4.78513897 2.95913767,2.95915497 C3.87212433,2.04616298 5.07138409,1.5896202 6.27064385,1.5896202 C7.46990361,1.5896202 8.66925692,2.04616298 9.58224358,2.95915497 C11.4082169,4.78513897 11.4082169,7.75622206 9.58224358,9.58220606 C8.69769713,10.4667577 7.52163859,10.9538926 6.27064385,10.9538926 C5.01974267,10.9538926 3.84368413,10.4667577 2.95913767,9.58220606 Z M16,14.8357224 L11.2495505,10.0852451 C13.1351173,7.62730486 12.9554949,4.08320445 10.7067543,1.83454417 C8.26070966,-0.611514724 4.28057804,-0.611514724 1.83453345,1.83454417 C-0.611511149,4.28069663 -0.611511149,8.26075796 1.83453345,10.7068169 C3.01947955,11.8917699 4.59491713,12.544308 6.27064385,12.544308 C7.66870437,12.544308 8.99594505,12.0887007 10.085841,11.2501776 L14.8356356,16 L16,14.8357224 Z"
           id="Fill-1"
           fill="#EE4C2C"
           mask="url(#mask-2)" />
      </g>
    </g>
  </g>
  <path
     style="fill:#009900;stroke-width:0.0153551;fill-opacity:1"
     d="M 12.454129,13.613438 10.08296,11.242231 9.996861,11.308481 C 9.8787513,11.399366 9.496617,11.647597 9.325696,11.744465 8.1332485,12.420275 6.6827681,12.676031 5.2744722,12.458796 4.3081902,12.309744 3.3309818,11.896088 2.5300321,11.297066 0.62514729,9.8724223 -0.29974956,7.5439856 0.10115376,5.1823417 0.36848562,3.6075412 1.2797159,2.1507711 2.5950096,1.1954522 4.4728694,-0.16846762 6.9955779,-0.37398174 9.0742055,0.66762024 10.802143,1.5334911 12.023656,3.1290302 12.407154,5.0211132 c 0.0926,0.4568521 0.113545,0.6806517 0.114265,1.2207294 4.11e-4,0.3096468 -0.0069,0.5595063 -0.0197,0.6756238 -0.116483,1.0543903 -0.476147,2.0325929 -1.064221,2.8944338 -0.06627,0.097121 -0.137471,0.1973128 -0.158223,0.2226488 l -0.03773,0.04607 2.375343,2.376171 2.375343,2.37617 -0.575691,0.575845 c -0.31663,0.316714 -0.579189,0.575845 -0.583464,0.575845 -0.0043,0 -1.0748,-1.067043 -2.378943,-2.371207 z M 6.843898,10.924871 C 7.7202012,10.812269 8.5129205,10.478912 9.1976967,9.9350431 9.4042509,9.7709916 9.7711103,9.4042213 9.9327344,9.2001838 10.897932,7.9816978 11.202955,6.3839155 10.753793,4.8992818 10.60948,4.4222758 10.343625,3.8897838 10.054797,3.4992299 9.8295799,3.1946908 9.4787446,2.8307842 9.1869145,2.5990122 7.9979197,1.6547099 6.4161465,1.3464152 4.9484917,1.7729247 3.4305784,2.2140395 2.2145339,3.4288774 1.7742151,4.944051 1.3355575,6.4535086 1.6683438,8.0665651 2.6665628,9.26937 c 0.1624849,0.1957862 0.4928043,0.5188944 0.6928879,0.6777615 0.7534675,0.5982555 1.6446459,0.9376695 2.6443881,1.0071395 0.1611616,0.0112 0.6599608,-0.0063 0.8400592,-0.0294 z"
     id="path844" />
</svg>
